<svg width="250" height="48" viewBox="0 0 250 48" fill="none" xmlns="http://www.w3.org/2000/svg">
<path d="M6.28125 29.1875V47H0.28125V1.5H17.0625C22.0417 1.5 25.9375 2.77083 28.75 5.3125C31.5833 7.85417 33 11.2188 33 15.4062C33 19.8229 31.6146 23.2292 28.8438 25.625C26.0938 28 22.1458 29.1875 17 29.1875H6.28125ZM6.28125 24.2812H17.0625C20.2708 24.2812 22.7292 23.5312 24.4375 22.0312C26.1458 20.5104 27 18.3229 27 15.4688C27 12.7604 26.1458 10.5938 24.4375 8.96875C22.7292 7.34375 20.3854 6.5 17.4062 6.4375H6.28125V24.2812Z" fill="#5B69E2"/>
<path d="M75.6562 25.7188C75.6562 30.1771 74.9062 34.0729 73.4062 37.4062C71.9062 40.7188 69.7812 43.25 67.0312 45C64.2812 46.75 61.0729 47.625 57.4062 47.625C53.8229 47.625 50.6458 46.75 47.875 45C45.1042 43.2292 42.9479 40.7188 41.4062 37.4688C39.8854 34.1979 39.1042 30.4167 39.0625 26.125V22.8438C39.0625 18.4688 39.8229 14.6042 41.3438 11.25C42.8646 7.89583 45.0104 5.33333 47.7812 3.5625C50.5729 1.77083 53.7604 0.875 57.3438 0.875C60.9896 0.875 64.1979 1.76042 66.9688 3.53125C69.7604 5.28125 71.9062 7.83333 73.4062 11.1875C74.9062 14.5208 75.6562 18.4062 75.6562 22.8438V25.7188ZM69.6875 22.7812C69.6875 17.3854 68.6042 13.25 66.4375 10.375C64.2708 7.47917 61.2396 6.03125 57.3438 6.03125C53.5521 6.03125 50.5625 7.47917 48.375 10.375C46.2083 13.25 45.0938 17.25 45.0312 22.375V25.7188C45.0312 30.9479 46.125 35.0625 48.3125 38.0625C50.5208 41.0417 53.5521 42.5312 57.4062 42.5312C61.2812 42.5312 64.2812 41.125 66.4062 38.3125C68.5312 35.4792 69.625 31.4271 69.6875 26.1562V22.7812Z" fill="#469D01" fill-opacity="0.74"/>
<path d="M118.25 41.0312C116.708 43.2396 114.552 44.8958 111.781 46C109.031 47.0833 105.823 47.625 102.156 47.625C98.4479 47.625 95.1562 46.7604 92.2812 45.0312C89.4062 43.2812 87.1771 40.8021 85.5938 37.5938C84.0312 34.3854 83.2292 30.6667 83.1875 26.4375V22.4688C83.1875 15.6146 84.7812 10.3021 87.9688 6.53125C91.1771 2.76042 95.6771 0.875 101.469 0.875C106.219 0.875 110.042 2.09375 112.938 4.53125C115.833 6.94792 117.604 10.3854 118.25 14.8438H112.25C111.125 8.82292 107.542 5.8125 101.5 5.8125C97.4792 5.8125 94.4271 7.22917 92.3438 10.0625C90.2812 12.875 89.2396 16.9583 89.2188 22.3125V26.0312C89.2188 31.1354 90.3854 35.1979 92.7188 38.2188C95.0521 41.2188 98.2083 42.7188 102.188 42.7188C104.438 42.7188 106.406 42.4688 108.094 41.9688C109.781 41.4688 111.177 40.625 112.281 39.4375V29.2188H101.75V24.3438H118.25V41.0312Z" fill="#BB5534"/>
<path d="M163.281 25.7188C163.281 30.1771 162.531 34.0729 161.031 37.4062C159.531 40.7188 157.406 43.25 154.656 45C151.906 46.75 148.698 47.625 145.031 47.625C141.448 47.625 138.271 46.75 135.5 45C132.729 43.2292 130.573 40.7188 129.031 37.4688C127.51 34.1979 126.729 30.4167 126.688 26.125V22.8438C126.688 18.4688 127.448 14.6042 128.969 11.25C130.49 7.89583 132.635 5.33333 135.406 3.5625C138.198 1.77083 141.385 0.875 144.969 0.875C148.615 0.875 151.823 1.76042 154.594 3.53125C157.385 5.28125 159.531 7.83333 161.031 11.1875C162.531 14.5208 163.281 18.4062 163.281 22.8438V25.7188ZM157.312 22.7812C157.312 17.3854 156.229 13.25 154.062 10.375C151.896 7.47917 148.865 6.03125 144.969 6.03125C141.177 6.03125 138.188 7.47917 136 10.375C133.833 13.25 132.719 17.25 132.656 22.375V25.7188C132.656 30.9479 133.75 35.0625 135.938 38.0625C138.146 41.0417 141.177 42.5312 145.031 42.5312C148.906 42.5312 151.906 41.125 154.031 38.3125C156.156 35.4792 157.25 31.4271 157.312 26.1562V22.7812Z" fill="#523ED0"/>
<path d="M172.281 47V1.5H185.125C189.083 1.5 192.583 2.375 195.625 4.125C198.667 5.875 201.01 8.36458 202.656 11.5938C204.323 14.8229 205.167 18.5312 205.188 22.7188V25.625C205.188 29.9167 204.354 33.6771 202.688 36.9062C201.042 40.1354 198.677 42.6146 195.594 44.3438C192.531 46.0729 188.958 46.9583 184.875 47H172.281ZM178.281 6.4375V42.0938H184.594C189.219 42.0938 192.812 40.6562 195.375 37.7812C197.958 34.9062 199.25 30.8125 199.25 25.5V22.8438C199.25 17.6771 198.031 13.6667 195.594 10.8125C193.177 7.9375 189.74 6.47917 185.281 6.4375H178.281Z" fill="#B0B320"/>
<path d="M239.406 35.125H220.344L216.062 47H209.875L227.25 1.5H232.5L249.906 47H243.75L239.406 35.125ZM222.156 30.1875H237.625L229.875 8.90625L222.156 30.1875Z" fill="#8420B3"/>
</svg>
