<svg width="46" height="36" viewBox="0 0 46 36" fill="none" xmlns="http://www.w3.org/2000/svg">
<line y1="-1.5" x2="20.9069" y2="-1.5" transform="matrix(0.856335 0.516421 -0.541398 0.840767 26.0481 24.6984)" stroke="#898484" stroke-width="3"/>
<path d="M29.5 15.0968C29.5 22.8223 23.0237 29.1129 15 29.1129C6.97629 29.1129 0.5 22.8223 0.5 15.0968C0.5 7.37119 6.97629 1.08063 15 1.08063C23.0237 1.08063 29.5 7.37119 29.5 15.0968Z" fill="#898484" stroke="#898484"/>
<path d="M25.78 15.0968C25.78 20.8477 20.9605 25.5219 15 25.5219C9.03952 25.5219 4.22 20.8477 4.22 15.0968C4.22 9.34585 9.03952 4.6716 15 4.6716C20.9605 4.6716 25.78 9.34585 25.78 15.0968Z" fill="#F5F5F5" stroke="#898484" stroke-width="0.44"/>
</svg>
